<svg width="986" height="674" viewBox="0 0 986 674" fill="none" xmlns="http://www.w3.org/2000/svg">
<path d="M505.696 213.043C353.353 347.074 382.975 530.885 416.829 606.036C503.158 296.606 726.453 164.092 827.309 136.513C537.857 280.473 465.494 548.121 465.494 663.951C485.806 609.345 562.824 572.252 598.794 560.531C716.5 522.177 811.087 464.007 842.12 428.155C957.224 299.088 986 88.9404 986 0C975.844 8.27353 828.014 54.4674 755.369 76.5301C619.953 124.517 532.497 187.533 505.696 213.043Z" fill="#5DD25E"/>
<path d="M101.562 239.932C159.5 263.693 275.911 316.876 363.931 467.454C356.878 437.808 351.659 366.931 387.206 320.599C342.5 266.695 287 220.383 169.27 198.565C67 179.611 4.23176 163.402 0 142.718C0 194.642 9.03006 316.329 33.5 370.271C72.541 456.334 109 512.005 230.631 566.737C348.674 619.854 380.437 655.13 386.161 674C368.989 572.949 308 368.172 101.562 239.932Z" fill="#5DD25E"/>
</svg>
